<svg width="80" height="100" viewBox="0 0 80 100" fill="none" xmlns="http://www.w3.org/2000/svg">
<path d="M0 0H75C77.7614 0 80 2.23858 80 5V95C80 97.7614 77.7614 100 75 100H0V0Z" fill="#293038"/>
<path d="M6.5405 18V9.992H5.52L5.8255 8.9H7.6325V18H6.5405ZM10.2094 18V9.992H9.18895L9.49445 8.9H11.3014V18H10.2094ZM16.2314 18.169C15.6897 18.169 15.2044 18.0477 14.7754 17.805C14.3464 17.558 13.9781 17.2178 13.6704 16.7845C13.3627 16.3512 13.1287 15.8507 12.9684 15.283C12.8081 14.711 12.7279 14.1 12.7279 13.45C12.7279 12.8 12.8081 12.189 12.9684 11.617C13.1287 11.045 13.3627 10.5445 13.6704 10.1155C13.9781 9.68217 14.3464 9.34417 14.7754 9.1015C15.2044 8.8545 15.6897 8.731 16.2314 8.731C16.7687 8.731 17.2519 8.8545 17.6809 9.1015C18.1142 9.34417 18.4804 9.68217 18.7794 10.1155C19.0827 10.5445 19.3146 11.045 19.4749 11.617C19.6396 12.189 19.7219 12.8 19.7219 13.45C19.7219 14.1 19.6396 14.711 19.4749 15.283C19.3146 15.8507 19.0827 16.3512 18.7794 16.7845C18.4804 17.2178 18.1142 17.558 17.6809 17.805C17.2519 18.0477 16.7687 18.169 16.2314 18.169ZM16.2314 17.077C16.7731 17.077 17.2259 16.9102 17.5899 16.5765C17.9582 16.2385 18.2334 15.7943 18.4154 15.244C18.5974 14.6937 18.6884 14.0957 18.6884 13.45C18.6884 12.7697 18.5931 12.1565 18.4024 11.6105C18.2161 11.0602 17.9387 10.6247 17.5704 10.304C17.2064 9.98333 16.7601 9.823 16.2314 9.823C15.8154 9.823 15.4514 9.9205 15.1394 10.1155C14.8317 10.3105 14.5761 10.577 14.3724 10.915C14.1687 11.253 14.0149 11.6408 13.9109 12.0785C13.8112 12.5118 13.7614 12.969 13.7614 13.45C13.7614 14.0957 13.8546 14.6958 14.0409 15.2505C14.2272 15.8008 14.5024 16.2428 14.8664 16.5765C15.2347 16.9102 15.6897 17.077 16.2314 17.077Z" fill="#E4E3CE"/>
<path d="M5.7 57V25.5H16.5675C18.1275 25.5 19.545 25.8225 20.82 26.4675C22.11 27.0975 23.13 28.02 23.88 29.235C24.63 30.45 25.005 31.905 25.005 33.6C25.005 34.515 24.8475 35.4 24.5325 36.255C24.2325 37.095 23.8125 37.8225 23.2725 38.4375C22.7475 39.0375 22.1475 39.4425 21.4725 39.6525C22.4175 39.8925 23.22 40.32 23.88 40.935C24.54 41.535 25.0725 42.24 25.4775 43.05C25.8975 43.86 26.1975 44.7075 26.3775 45.5925C26.5575 46.4775 26.6475 47.3325 26.6475 48.1575C26.6475 49.8975 26.25 51.435 25.455 52.77C24.675 54.09 23.625 55.125 22.305 55.875C20.985 56.625 19.53 57 17.94 57H5.7ZM9.48 53.67H17.6025C18.6375 53.67 19.575 53.4075 20.415 52.8825C21.27 52.3425 21.9525 51.6075 22.4625 50.6775C22.9725 49.7475 23.2275 48.6975 23.2275 47.5275C23.2275 46.4925 22.9725 45.5175 22.4625 44.6025C21.9525 43.6725 21.27 42.9225 20.415 42.3525C19.575 41.7825 18.6375 41.4975 17.6025 41.4975H9.48V53.67ZM9.48 38.235H16.2075C17.5875 38.235 18.765 37.83 19.74 37.02C20.73 36.195 21.225 35.0475 21.225 33.5775C21.225 31.9875 20.73 30.8025 19.74 30.0225C18.765 29.2275 17.5875 28.83 16.2075 28.83H9.48V38.235ZM40.0775 57.585C38.0075 57.585 36.1175 57.0525 34.4075 55.9875C32.7125 54.9225 31.355 53.4975 30.335 51.7125C29.33 49.9125 28.8275 47.925 28.8275 45.75C28.8275 44.1 29.12 42.5625 29.705 41.1375C30.29 39.6975 31.0925 38.4375 32.1125 37.3575C33.1475 36.2625 34.3475 35.4075 35.7125 34.7925C37.0775 34.1775 38.5325 33.87 40.0775 33.87C41.7725 33.87 43.325 34.215 44.735 34.905C46.16 35.58 47.375 36.525 48.38 37.74C49.4 38.955 50.1575 40.365 50.6525 41.97C51.1625 43.575 51.35 45.2925 51.215 47.1225H32.855C33.035 48.3975 33.455 49.5375 34.115 50.5425C34.775 51.5325 35.615 52.32 36.635 52.905C37.67 53.49 38.8175 53.79 40.0775 53.805C41.4275 53.805 42.65 53.46 43.745 52.77C44.84 52.065 45.725 51.105 46.4 49.89L50.2475 50.79C49.3475 52.785 47.99 54.42 46.175 55.695C44.36 56.955 42.3275 57.585 40.0775 57.585ZM32.7425 44.1525H47.4125C47.2925 42.8925 46.8875 41.745 46.1975 40.71C45.5075 39.66 44.63 38.82 43.565 38.19C42.5 37.56 41.3375 37.245 40.0775 37.245C38.8175 37.245 37.6625 37.5525 36.6125 38.1675C35.5625 38.7825 34.6925 39.615 34.0025 40.665C33.3275 41.7 32.9075 42.8625 32.7425 44.1525Z" fill="#E4E3CE"/>
<path d="M5.78 76V66.9H8.9195C9.37017 66.9 9.77967 66.9932 10.148 67.1795C10.5207 67.3615 10.8153 67.628 11.032 67.979C11.2487 68.33 11.357 68.7503 11.357 69.24C11.357 69.5043 11.3115 69.76 11.2205 70.007C11.1338 70.2497 11.0125 70.4598 10.8565 70.6375C10.7048 70.8108 10.5315 70.9278 10.3365 70.9885C10.6095 71.0578 10.8413 71.1813 11.032 71.359C11.2227 71.5323 11.3765 71.736 11.4935 71.97C11.6148 72.204 11.7015 72.4488 11.7535 72.7045C11.8055 72.9602 11.8315 73.2072 11.8315 73.4455C11.8315 73.9482 11.7167 74.3923 11.487 74.778C11.2617 75.1593 10.9583 75.4583 10.577 75.675C10.1957 75.8917 9.77533 76 9.316 76H5.78ZM6.872 75.038H9.2185C9.5175 75.038 9.78833 74.9622 10.031 74.8105C10.278 74.6545 10.4752 74.4422 10.6225 74.1735C10.7698 73.9048 10.8435 73.6015 10.8435 73.2635C10.8435 72.9645 10.7698 72.6828 10.6225 72.4185C10.4752 72.1498 10.278 71.9332 10.031 71.7685C9.78833 71.6038 9.5175 71.5215 9.2185 71.5215H6.872V75.038ZM6.872 70.579H8.8155C9.21417 70.579 9.55433 70.462 9.836 70.228C10.122 69.9897 10.265 69.6582 10.265 69.2335C10.265 68.7742 10.122 68.4318 9.836 68.2065C9.55433 67.9768 9.21417 67.862 8.8155 67.862H6.872V70.579ZM15.7113 76.169C15.1133 76.169 14.5673 76.0152 14.0733 75.7075C13.5836 75.3998 13.1915 74.9882 12.8968 74.4725C12.6065 73.9525 12.4613 73.3783 12.4613 72.75C12.4613 72.2733 12.5458 71.8292 12.7148 71.4175C12.8838 71.0015 13.1156 70.6375 13.4103 70.3255C13.7093 70.0092 14.056 69.7622 14.4503 69.5845C14.8446 69.4068 15.265 69.318 15.7113 69.318C16.201 69.318 16.6495 69.4177 17.0568 69.617C17.4685 69.812 17.8195 70.085 18.1098 70.436C18.4045 70.787 18.6233 71.1943 18.7663 71.658C18.9136 72.1217 18.9678 72.6178 18.9288 73.1465H13.6248C13.6768 73.5148 13.7981 73.8442 13.9888 74.1345C14.1795 74.4205 14.4221 74.648 14.7168 74.817C15.0158 74.986 15.3473 75.0727 15.7113 75.077C16.1013 75.077 16.4545 74.9773 16.7708 74.778C17.0871 74.5743 17.3428 74.297 17.5378 73.946L18.6493 74.206C18.3893 74.7823 17.9971 75.2547 17.4728 75.623C16.9485 75.987 16.3613 76.169 15.7113 76.169ZM13.5923 72.2885H17.8303C17.7956 71.9245 17.6786 71.593 17.4793 71.294C17.28 70.9907 17.0265 70.748 16.7188 70.566C16.4111 70.384 16.0753 70.293 15.7113 70.293C15.3473 70.293 15.0136 70.3818 14.7103 70.5595C14.407 70.7372 14.1556 70.9777 13.9563 71.281C13.7613 71.58 13.64 71.9158 13.5923 72.2885ZM19.9607 76V66.25H21.0527V76H19.9607ZM26.8126 69.5H27.9696L24.4141 79.25H23.2571L24.4336 76L22.1001 69.5H23.2961L24.9796 74.4985L26.8126 69.5ZM34.0353 69.5H35.1273V76H34.0353L33.9898 74.9015C33.7861 75.2785 33.5045 75.584 33.1448 75.818C32.7895 76.052 32.3648 76.169 31.8708 76.169C31.3941 76.169 30.9478 76.0802 30.5318 75.9025C30.1158 75.7205 29.7475 75.4713 29.4268 75.155C29.1105 74.8343 28.8635 74.466 28.6858 74.05C28.5081 73.634 28.4193 73.1855 28.4193 72.7045C28.4193 72.2408 28.506 71.8032 28.6793 71.3915C28.8526 70.9798 29.0931 70.6202 29.4008 70.3125C29.7128 70.0005 30.0725 69.7578 30.4798 69.5845C30.8871 69.4068 31.3248 69.318 31.7928 69.318C32.3041 69.318 32.7526 69.4393 33.1383 69.682C33.524 69.9203 33.836 70.2302 34.0743 70.6115L34.0353 69.5ZM31.8513 75.1095C32.2803 75.1095 32.6508 75.0055 32.9628 74.7975C33.2791 74.5852 33.5218 74.2992 33.6908 73.9395C33.8641 73.5798 33.9508 73.1833 33.9508 72.75C33.9508 72.308 33.8641 71.9093 33.6908 71.554C33.5175 71.1943 33.2726 70.9105 32.9563 70.7025C32.6443 70.4902 32.276 70.384 31.8513 70.384C31.4223 70.384 31.0323 70.4902 30.6813 70.7025C30.3303 70.9148 30.0508 71.2008 29.8428 71.5605C29.6391 71.9158 29.5373 72.3123 29.5373 72.75C29.5373 73.1877 29.6435 73.5863 29.8558 73.946C30.0681 74.3013 30.3498 74.5852 30.7008 74.7975C31.0518 75.0055 31.4353 75.1095 31.8513 75.1095ZM41.7742 76H40.5197L38.7907 73.0165L37.5947 74.4465V76H36.5027V66.25H37.5947V72.75L40.3182 69.5H41.7417L39.5317 72.1325L41.7742 76ZM45.3929 76.169C44.7949 76.169 44.2489 76.0152 43.7549 75.7075C43.2653 75.3998 42.8731 74.9882 42.5784 74.4725C42.2881 73.9525 42.1429 73.3783 42.1429 72.75C42.1429 72.2733 42.2274 71.8292 42.3964 71.4175C42.5654 71.0015 42.7973 70.6375 43.0919 70.3255C43.3909 70.0092 43.7376 69.7622 44.1319 69.5845C44.5263 69.4068 44.9466 69.318 45.3929 69.318C45.9909 69.318 46.5348 69.4718 47.0244 69.7795C47.5184 70.0872 47.9106 70.501 48.2009 71.021C48.4956 71.541 48.6429 72.1173 48.6429 72.75C48.6429 73.2223 48.5584 73.6643 48.3894 74.076C48.2204 74.4877 47.9864 74.8517 47.6874 75.168C47.3928 75.48 47.0483 75.7248 46.6539 75.9025C46.2639 76.0802 45.8436 76.169 45.3929 76.169ZM45.3929 75.077C45.8003 75.077 46.1664 74.9708 46.4914 74.7585C46.8208 74.5418 47.0786 74.258 47.2649 73.907C47.4556 73.5517 47.5509 73.166 47.5509 72.75C47.5509 72.3253 47.4534 71.9353 47.2584 71.58C47.0678 71.2247 46.8099 70.9408 46.4849 70.7285C46.1599 70.5162 45.7959 70.41 45.3929 70.41C44.9856 70.41 44.6194 70.5183 44.2944 70.735C43.9694 70.9473 43.7116 71.2312 43.5209 71.5865C43.3303 71.9418 43.2349 72.3297 43.2349 72.75C43.2349 73.1833 43.3324 73.5777 43.5274 73.933C43.7224 74.284 43.9846 74.5635 44.3139 74.7715C44.6433 74.9752 45.0029 75.077 45.3929 75.077ZM52.8192 76H51.4217L49.0492 69.487H50.2127L52.1172 74.7325L54.0217 69.487H55.1852L52.8192 76Z" fill="#E4E3CE"/>
<path d="M7.926 92.143C7.442 92.143 6.99833 92.0238 6.595 91.7855C6.19533 91.5435 5.8745 91.2208 5.6325 90.8175C5.39417 90.4142 5.275 89.9687 5.275 89.481C5.275 89.1987 5.308 88.9585 5.374 88.7605C5.44 88.5588 5.53717 88.3352 5.6655 88.0895L7.849 84.3H8.7455L7.145 87.072C7.46767 86.9473 7.79217 86.8923 8.1185 86.907C8.44483 86.918 8.7565 86.9895 9.0535 87.1215C9.3505 87.2535 9.6145 87.435 9.8455 87.666C10.0765 87.8933 10.258 88.161 10.39 88.469C10.5257 88.777 10.5935 89.1143 10.5935 89.481C10.5935 89.8477 10.5238 90.1923 10.3845 90.515C10.2452 90.834 10.0527 91.1163 9.807 91.362C9.565 91.604 9.28267 91.7947 8.96 91.934C8.63733 92.0733 8.29267 92.143 7.926 92.143ZM7.926 91.373C8.29267 91.373 8.619 91.285 8.905 91.109C9.191 90.9293 9.41467 90.6947 9.576 90.405C9.741 90.1153 9.8235 89.8055 9.8235 89.4755C9.8235 89.1308 9.73917 88.8173 9.5705 88.535C9.40183 88.249 9.1745 88.0217 8.8885 87.853C8.6025 87.6807 8.28533 87.5945 7.937 87.5945C7.57767 87.5945 7.255 87.6825 6.969 87.8585C6.683 88.0345 6.4575 88.2655 6.2925 88.5515C6.1275 88.8338 6.045 89.1418 6.045 89.4755C6.045 89.8348 6.13117 90.1575 6.3035 90.4435C6.4795 90.7295 6.7105 90.9568 6.9965 91.1255C7.2825 91.2905 7.59233 91.373 7.926 91.373ZM11.3589 92.616L11.6999 90.757H12.4699L11.8704 92.616H11.3589ZM14.3968 92V85.07H13.5718L13.7918 84.3H15.1668V92H14.3968ZM17.308 92V85.07H16.483L16.703 84.3H18.078V92H17.308Z" fill="#E4E3CE"/>
</svg>
